STARTFONT 2.1
COMMENT
COMMENT Converted from OpenType font "Q:\font stuff\winfont\Mainframe BB.ttf" by "otf2bdf 3.0".
COMMENT
FONT -FreeType-Mainframe BB-Medium-R-Normal--14-140-72-72-P-84-ISO10646-1
SIZE 14 72 72
FONTBOUNDINGBOX 15 14 0 -2
STARTPROPERTIES 19
FOUNDRY "FreeType"
FAMILY_NAME "Mainframe BB"
WEIGHT_NAME "Medium"
SLANT "R"
SETWIDTH_NAME "Normal"
ADD_STYLE_NAME ""
PIXEL_SIZE 12
POINT_SIZE 140
RESOLUTION_X 72
RESOLUTION_Y 72
SPACING "P"
AVERAGE_WIDTH 84
CHARSET_REGISTRY "ISO10646"
CHARSET_ENCODING "1"
FONT_ASCENT 12
FONT_DESCENT 2
COPYRIGHT "© 2005 Nate Piekos. www.blambot.com"
_OTF_FONTFILE "Q:\font stuff\winfont\Mainframe BB.ttf"
_OTF_PSNAME "MainframeBB"
ENDPROPERTIES
CHARS 105
STARTCHAR 0020
ENCODING 32
SWIDTH 357 0
DWIDTH 5 0
BBX 0 0 0 0
BITMAP
ENDCHAR
STARTCHAR 0021
ENCODING 33
SWIDTH 357 0
DWIDTH 5 0
BBX 3 10 1 0
BITMAP
60
60
60
60
60
60
00
00
E0
E0
ENDCHAR
STARTCHAR 0022
ENCODING 34
SWIDTH 500 0
DWIDTH 7 0
BBX 5 4 1 6
BITMAP
D8
D8
D8
D8
ENDCHAR
STARTCHAR 0023
ENCODING 35
SWIDTH 785 0
DWIDTH 11 0
BBX 10 10 1 0
BITMAP
3300
3300
FFC0
FFC0
3300
3300
FFC0
FFC0
3300
3300
ENDCHAR
STARTCHAR 0024
ENCODING 36
SWIDTH 857 0
DWIDTH 12 0
BBX 11 12 0 -1
BITMAP
0600
0FC0
1FC0
3600
7600
FFE0
FFE0
06E0
07C0
3F80
3F00
0600
ENDCHAR
STARTCHAR 0025
ENCODING 37
SWIDTH 714 0
DWIDTH 10 0
BBX 10 10 0 0
BITMAP
79C0
FB80
DB00
FE00
7E00
1F80
1F80
3D80
7F80
E780
ENDCHAR
STARTCHAR 0026
ENCODING 38
SWIDTH 785 0
DWIDTH 11 0
BBX 10 10 0 0
BITMAP
0FC0
1FC0
1800
1800
7EC0
FEC0
60C0
60C0
7FC0
3FC0
ENDCHAR
STARTCHAR 0027
ENCODING 39
SWIDTH 285 0
DWIDTH 4 0
BBX 2 4 1 6
BITMAP
C0
C0
C0
C0
ENDCHAR
STARTCHAR 0028
ENCODING 40
SWIDTH 285 0
DWIDTH 4 0
BBX 3 12 1 -1
BITMAP
60
C0
C0
C0
C0
C0
C0
C0
C0
C0
C0
60
ENDCHAR
STARTCHAR 0029
ENCODING 41
SWIDTH 285 0
DWIDTH 4 0
BBX 3 12 0 -1
BITMAP
C0
60
60
60
60
60
60
60
60
60
60
C0
ENDCHAR
STARTCHAR 002A
ENCODING 42
SWIDTH 571 0
DWIDTH 8 0
BBX 6 6 1 4
BITMAP
30
FC
FC
FC
FC
30
ENDCHAR
STARTCHAR 002B
ENCODING 43
SWIDTH 571 0
DWIDTH 8 0
BBX 6 6 1 2
BITMAP
30
30
FC
FC
30
30
ENDCHAR
STARTCHAR 002C
ENCODING 44
SWIDTH 357 0
DWIDTH 5 0
BBX 3 4 1 -2
BITMAP
E0
E0
60
60
ENDCHAR
STARTCHAR 002D
ENCODING 45
SWIDTH 571 0
DWIDTH 8 0
BBX 6 2 1 4
BITMAP
FC
FC
ENDCHAR
STARTCHAR 002E
ENCODING 46
SWIDTH 357 0
DWIDTH 5 0
BBX 3 2 1 0
BITMAP
E0
E0
ENDCHAR
STARTCHAR 002F
ENCODING 47
SWIDTH 642 0
DWIDTH 9 0
BBX 9 10 0 0
BITMAP
0180
0300
0700
0600
0C00
1C00
3800
3000
6000
E000
ENDCHAR
STARTCHAR 0030
ENCODING 48
SWIDTH 785 0
DWIDTH 11 0
BBX 10 10 1 0
BITMAP
7F80
FFC0
C7C0
C6C0
CCC0
DCC0
F8C0
F0C0
FFC0
FF80
ENDCHAR
STARTCHAR 0031
ENCODING 49
SWIDTH 285 0
DWIDTH 4 0
BBX 3 10 0 0
BITMAP
E0
E0
60
60
60
60
60
60
60
60
ENDCHAR
STARTCHAR 0032
ENCODING 50
SWIDTH 785 0
DWIDTH 11 0
BBX 9 10 1 0
BITMAP
FC00
FE00
C700
0380
FF80
FF80
C000
C000
FF80
FF80
ENDCHAR
STARTCHAR 0033
ENCODING 51
SWIDTH 785 0
DWIDTH 11 0
BBX 9 10 1 0
BITMAP
FC00
FE00
C600
0600
FF80
FF80
0180
0180
FF80
FF00
ENDCHAR
STARTCHAR 0034
ENCODING 52
SWIDTH 785 0
DWIDTH 11 0
BBX 9 10 1 0
BITMAP
6300
E300
C300
C300
FF80
FF80
0300
0300
0300
0300
ENDCHAR
STARTCHAR 0035
ENCODING 53
SWIDTH 785 0
DWIDTH 11 0
BBX 10 10 1 0
BITMAP
FF00
FF00
C000
C000
FFC0
FFC0
0380
0700
FE00
FC00
ENDCHAR
STARTCHAR 0036
ENCODING 54
SWIDTH 785 0
DWIDTH 11 0
BBX 10 10 1 0
BITMAP
0F80
1F80
3800
7000
FFC0
FFC0
C0C0
C180
FF80
7F00
ENDCHAR
STARTCHAR 0037
ENCODING 55
SWIDTH 571 0
DWIDTH 8 0
BBX 8 10 0 0
BITMAP
FF
FF
C3
06
06
06
0C
0C
0C
1C
ENDCHAR
STARTCHAR 0038
ENCODING 56
SWIDTH 785 0
DWIDTH 11 0
BBX 10 10 0 0
BITMAP
1F80
1F80
3180
3180
7FC0
7FC0
C0C0
C0C0
7FC0
7FC0
ENDCHAR
STARTCHAR 0039
ENCODING 57
SWIDTH 785 0
DWIDTH 11 0
BBX 10 10 0 0
BITMAP
3F80
7FC0
60C0
60C0
FFC0
7FC0
0380
0700
7E00
7C00
ENDCHAR
STARTCHAR 003A
ENCODING 58
SWIDTH 357 0
DWIDTH 5 0
BBX 3 5 1 0
BITMAP
E0
E0
00
E0
E0
ENDCHAR
STARTCHAR 003B
ENCODING 59
SWIDTH 357 0
DWIDTH 5 0
BBX 3 7 1 -2
BITMAP
E0
E0
00
E0
E0
60
60
ENDCHAR
STARTCHAR 003C
ENCODING 60
SWIDTH 428 0
DWIDTH 6 0
BBX 4 12 1 -1
BITMAP
30
70
60
E0
C0
C0
C0
C0
E0
60
70
30
ENDCHAR
STARTCHAR 003D
ENCODING 61
SWIDTH 571 0
DWIDTH 8 0
BBX 6 6 1 2
BITMAP
FC
FC
00
00
FC
FC
ENDCHAR
STARTCHAR 003E
ENCODING 62
SWIDTH 428 0
DWIDTH 6 0
BBX 4 12 1 -1
BITMAP
C0
C0
60
60
30
30
30
30
60
60
C0
C0
ENDCHAR
STARTCHAR 003F
ENCODING 63
SWIDTH 714 0
DWIDTH 10 0
BBX 9 10 1 0
BITMAP
7800
7C00
0E00
0700
7F80
7F00
6000
0000
E000
E000
ENDCHAR
STARTCHAR 0040
ENCODING 64
SWIDTH 1142 0
DWIDTH 16 0
BBX 14 10 1 0
BITMAP
7FF8
FFFC
C00C
C00C
C78C
CFCC
CCCC
CCCC
CFFC
C7F8
ENDCHAR
STARTCHAR 0041
ENCODING 65
SWIDTH 785 0
DWIDTH 11 0
BBX 10 10 1 0
BITMAP
0F80
1FC0
38C0
70C0
E0C0
C0C0
FFC0
FFC0
C0C0
C0C0
ENDCHAR
STARTCHAR 0042
ENCODING 66
SWIDTH 857 0
DWIDTH 12 0
BBX 11 10 1 0
BITMAP
FE00
FF00
C300
C300
FFE0
FFE0
C060
C0C0
FFC0
FF80
ENDCHAR
STARTCHAR 0043
ENCODING 67
SWIDTH 785 0
DWIDTH 11 0
BBX 10 10 1 0
BITMAP
0FC0
1FC0
38C0
7000
E000
C000
C000
C000
FFC0
7FC0
ENDCHAR
STARTCHAR 0044
ENCODING 68
SWIDTH 785 0
DWIDTH 11 0
BBX 10 10 1 0
BITMAP
FF80
FFC0
C0C0
C0C0
C1C0
C380
C700
CE00
FC00
F800
ENDCHAR
STARTCHAR 0045
ENCODING 69
SWIDTH 785 0
DWIDTH 11 0
BBX 9 10 1 0
BITMAP
7F80
FF80
C000
C000
FF80
FF80
C000
C000
FE00
FE00
ENDCHAR
STARTCHAR 0046
ENCODING 70
SWIDTH 714 0
DWIDTH 10 0
BBX 8 10 1 0
BITMAP
7F
FF
C0
C0
FF
FF
C0
C0
C0
C0
ENDCHAR
STARTCHAR 0047
ENCODING 71
SWIDTH 785 0
DWIDTH 11 0
BBX 10 10 0 0
BITMAP
07C0
0FC0
1CC0
3800
73C0
63C0
C0C0
C0C0
7FC0
7FC0
ENDCHAR
STARTCHAR 0048
ENCODING 72
SWIDTH 785 0
DWIDTH 11 0
BBX 10 10 1 0
BITMAP
C0C0
C0C0
C0C0
C0C0
FFC0
FFC0
C0C0
C0C0
C0C0
C0C0
ENDCHAR
STARTCHAR 0049
ENCODING 73
SWIDTH 714 0
DWIDTH 10 0
BBX 9 10 1 0
BITMAP
FF80
FF80
D800
1800
1800
1800
1800
1800
FF80
FF80
ENDCHAR
STARTCHAR 004A
ENCODING 74
SWIDTH 785 0
DWIDTH 11 0
BBX 10 10 1 0
BITMAP
3FC0
3FC0
30C0
00C0
00C0
00C0
00C0
C0C0
FF80
FF80
ENDCHAR
STARTCHAR 004B
ENCODING 75
SWIDTH 785 0
DWIDTH 11 0
BBX 10 10 1 0
BITMAP
C3C0
CFC0
DE00
F800
E000
E000
F800
DE00
C7C0
C3C0
ENDCHAR
STARTCHAR 004C
ENCODING 76
SWIDTH 714 0
DWIDTH 10 0
BBX 8 10 1 0
BITMAP
C0
C0
C0
C0
C0
C0
C0
C0
FF
7F
ENDCHAR
STARTCHAR 004D
ENCODING 77
SWIDTH 928 0
DWIDTH 13 0
BBX 11 10 1 0
BITMAP
73C0
FBC0
CF60
CE60
C660
C660
C660
C660
C660
C660
ENDCHAR
STARTCHAR 004E
ENCODING 78
SWIDTH 785 0
DWIDTH 11 0
BBX 10 10 1 0
BITMAP
F0C0
F8C0
D8C0
DCC0
CCC0
C6C0
C7C0
C3C0
C1C0
C1C0
ENDCHAR
STARTCHAR 004F
ENCODING 79
SWIDTH 785 0
DWIDTH 11 0
BBX 10 10 1 0
BITMAP
7F80
FFC0
C0C0
C0C0
C0C0
C0C0
C0C0
C0C0
FFC0
7F80
ENDCHAR
STARTCHAR 0050
ENCODING 80
SWIDTH 785 0
DWIDTH 11 0
BBX 10 10 1 0
BITMAP
FF80
FFC0
C0C0
C0C0
C0C0
FFC0
FF80
C000
C000
C000
ENDCHAR
STARTCHAR 0051
ENCODING 81
SWIDTH 785 0
DWIDTH 11 0
BBX 9 10 1 0
BITMAP
7F00
FF80
8080
8080
8080
8880
8880
8880
FF80
7F00
ENDCHAR
STARTCHAR 0052
ENCODING 82
SWIDTH 785 0
DWIDTH 11 0
BBX 10 10 1 0
BITMAP
FF80
FFC0
C0C0
C0C0
FFC0
FF80
F800
DE00
C7C0
C3C0
ENDCHAR
STARTCHAR 0053
ENCODING 83
SWIDTH 857 0
DWIDTH 12 0
BBX 11 10 0 0
BITMAP
0FC0
1FC0
3800
7000
FFE0
FFE0
00E0
01C0
3F80
3F00
ENDCHAR
STARTCHAR 0054
ENCODING 84
SWIDTH 714 0
DWIDTH 10 0
BBX 9 10 0 0
BITMAP
FF80
FF80
CC00
0C00
0C00
0C00
0C00
0C00
0C00
0C00
ENDCHAR
STARTCHAR 0055
ENCODING 85
SWIDTH 785 0
DWIDTH 11 0
BBX 10 10 1 0
BITMAP
C0C0
C0C0
C0C0
C0C0
C0C0
C0C0
C0C0
C0C0
FFC0
7F80
ENDCHAR
STARTCHAR 0056
ENCODING 86
SWIDTH 785 0
DWIDTH 11 0
BBX 10 10 1 0
BITMAP
C0C0
C0C0
C0C0
C0C0
C1C0
C180
C300
C600
FC00
7800
ENDCHAR
STARTCHAR 0057
ENCODING 87
SWIDTH 928 0
DWIDTH 13 0
BBX 11 10 1 0
BITMAP
C660
C660
C660
C660
C660
C660
CE60
DF60
FBC0
73C0
ENDCHAR
STARTCHAR 0058
ENCODING 88
SWIDTH 714 0
DWIDTH 10 0
BBX 9 10 1 0
BITMAP
C180
E300
7700
3E00
1C00
1C00
3E00
7600
E300
C380
ENDCHAR
STARTCHAR 0059
ENCODING 89
SWIDTH 714 0
DWIDTH 10 0
BBX 10 10 0 1
BITMAP
E1C0
6180
7180
3300
3B00
1E00
1E00
0C00
3C00
3800
ENDCHAR
STARTCHAR 005A
ENCODING 90
SWIDTH 714 0
DWIDTH 10 0
BBX 9 10 1 0
BITMAP
FF80
FF80
C700
0600
0C00
1800
3000
6000
FF80
FF80
ENDCHAR
STARTCHAR 005B
ENCODING 91
SWIDTH 428 0
DWIDTH 6 0
BBX 4 14 1 -2
BITMAP
F0
F0
C0
C0
C0
C0
C0
C0
C0
C0
C0
C0
F0
F0
ENDCHAR
STARTCHAR 005C
ENCODING 92
SWIDTH 714 0
DWIDTH 10 0
BBX 9 10 0 0
BITMAP
E000
6000
3000
3800
1C00
0C00
0600
0700
0300
0180
ENDCHAR
STARTCHAR 005D
ENCODING 93
SWIDTH 428 0
DWIDTH 6 0
BBX 4 14 1 -2
BITMAP
F0
F0
30
30
30
30
30
30
30
30
30
30
F0
F0
ENDCHAR
STARTCHAR 005E
ENCODING 94
SWIDTH 428 0
DWIDTH 6 0
BBX 5 3 1 7
BITMAP
F0
F8
88
ENDCHAR
STARTCHAR 005F
ENCODING 95
SWIDTH 642 0
DWIDTH 9 0
BBX 9 2 0 -2
BITMAP
FF80
FF80
ENDCHAR
STARTCHAR 0060
ENCODING 96
SWIDTH 357 0
DWIDTH 5 0
BBX 4 3 1 8
BITMAP
80
F0
70
ENDCHAR
STARTCHAR 0061
ENCODING 97
SWIDTH 785 0
DWIDTH 11 0
BBX 10 10 1 0
BITMAP
0F80
1FC0
38C0
70C0
E0C0
C0C0
FFC0
FFC0
C0C0
C0C0
ENDCHAR
STARTCHAR 0062
ENCODING 98
SWIDTH 857 0
DWIDTH 12 0
BBX 11 10 1 0
BITMAP
FE00
FF00
C300
C300
FFE0
FFE0
C060
C0C0
FFC0
FF80
ENDCHAR
STARTCHAR 0063
ENCODING 99
SWIDTH 785 0
DWIDTH 11 0
BBX 10 10 1 0
BITMAP
0FC0
1FC0
38C0
7000
E000
C000
C000
C000
FFC0
7FC0
ENDCHAR
STARTCHAR 0064
ENCODING 100
SWIDTH 785 0
DWIDTH 11 0
BBX 10 10 1 0
BITMAP
FF80
FFC0
C0C0
C0C0
C1C0
C380
C700
CE00
FC00
F800
ENDCHAR
STARTCHAR 0065
ENCODING 101
SWIDTH 785 0
DWIDTH 11 0
BBX 9 10 1 0
BITMAP
7F80
FF80
C000
C000
FF80
FF80
C000
C000
FE00
FE00
ENDCHAR
STARTCHAR 0066
ENCODING 102
SWIDTH 714 0
DWIDTH 10 0
BBX 8 10 1 0
BITMAP
7F
FF
C0
C0
FF
FF
C0
C0
C0
C0
ENDCHAR
STARTCHAR 0067
ENCODING 103
SWIDTH 785 0
DWIDTH 11 0
BBX 10 10 0 0
BITMAP
07C0
0FC0
1CC0
3800
73C0
63C0
C0C0
C0C0
7FC0
7FC0
ENDCHAR
STARTCHAR 0068
ENCODING 104
SWIDTH 785 0
DWIDTH 11 0
BBX 10 10 1 0
BITMAP
C0C0
C0C0
C0C0
C0C0
FFC0
FFC0
C0C0
C0C0
C0C0
C0C0
ENDCHAR
STARTCHAR 0069
ENCODING 105
SWIDTH 285 0
DWIDTH 4 0
BBX 2 10 1 0
BITMAP
C0
C0
C0
C0
C0
C0
C0
C0
C0
C0
ENDCHAR
STARTCHAR 006A
ENCODING 106
SWIDTH 785 0
DWIDTH 11 0
BBX 10 10 1 0
BITMAP
3FC0
3FC0
30C0
00C0
00C0
00C0
00C0
C0C0
FF80
FF80
ENDCHAR
STARTCHAR 006B
ENCODING 107
SWIDTH 785 0
DWIDTH 11 0
BBX 10 10 1 0
BITMAP
C3C0
CFC0
DE00
F800
E000
E000
F800
DE00
C7C0
C3C0
ENDCHAR
STARTCHAR 006C
ENCODING 108
SWIDTH 714 0
DWIDTH 10 0
BBX 8 10 1 0
BITMAP
C0
C0
C0
C0
C0
C0
C0
C0
FF
7F
ENDCHAR
STARTCHAR 006D
ENCODING 109
SWIDTH 928 0
DWIDTH 13 0
BBX 11 10 1 0
BITMAP
73C0
FBC0
CF60
CE60
C660
C660
C660
C660
C660
C660
ENDCHAR
STARTCHAR 006E
ENCODING 110
SWIDTH 785 0
DWIDTH 11 0
BBX 10 10 1 0
BITMAP
F0C0
F8C0
D8C0
DCC0
CCC0
C6C0
C7C0
C3C0
C1C0
C1C0
ENDCHAR
STARTCHAR 006F
ENCODING 111
SWIDTH 785 0
DWIDTH 11 0
BBX 10 10 1 0
BITMAP
7F80
FFC0
C0C0
C0C0
C0C0
C0C0
C0C0
C0C0
FFC0
7F80
ENDCHAR
STARTCHAR 0070
ENCODING 112
SWIDTH 785 0
DWIDTH 11 0
BBX 10 10 1 0
BITMAP
FF80
FFC0
C0C0
C0C0
C0C0
FFC0
FF80
C000
C000
C000
ENDCHAR
STARTCHAR 0071
ENCODING 113
SWIDTH 785 0
DWIDTH 11 0
BBX 9 10 1 0
BITMAP
7F00
FF80
8080
8080
8080
8880
8880
8880
FF80
7F00
ENDCHAR
STARTCHAR 0072
ENCODING 114
SWIDTH 785 0
DWIDTH 11 0
BBX 10 10 1 0
BITMAP
FF80
FFC0
C0C0
C0C0
FFC0
FF80
F800
DE00
C7C0
C3C0
ENDCHAR
STARTCHAR 0073
ENCODING 115
SWIDTH 857 0
DWIDTH 12 0
BBX 11 10 0 0
BITMAP
0FC0
1FC0
3800
7000
FFE0
FFE0
00E0
01C0
3F80
3F00
ENDCHAR
STARTCHAR 0074
ENCODING 116
SWIDTH 714 0
DWIDTH 10 0
BBX 9 10 0 0
BITMAP
FF80
FF80
CC00
0C00
0C00
0C00
0C00
0C00
0C00
0C00
ENDCHAR
STARTCHAR 0075
ENCODING 117
SWIDTH 785 0
DWIDTH 11 0
BBX 10 10 1 0
BITMAP
C0C0
C0C0
C0C0
C0C0
C0C0
C0C0
C0C0
C0C0
FFC0
7F80
ENDCHAR
STARTCHAR 0076
ENCODING 118
SWIDTH 785 0
DWIDTH 11 0
BBX 10 10 1 0
BITMAP
C0C0
C0C0
C0C0
C0C0
C1C0
C180
C300
C600
FC00
7800
ENDCHAR
STARTCHAR 0077
ENCODING 119
SWIDTH 928 0
DWIDTH 13 0
BBX 11 10 1 0
BITMAP
C660
C660
C660
C660
C660
C660
CE60
DF60
FBC0
73C0
ENDCHAR
STARTCHAR 0078
ENCODING 120
SWIDTH 714 0
DWIDTH 10 0
BBX 9 10 1 0
BITMAP
C180
E300
7700
3E00
1C00
1C00
3E00
7600
E300
C380
ENDCHAR
STARTCHAR 0079
ENCODING 121
SWIDTH 714 0
DWIDTH 10 0
BBX 10 10 0 1
BITMAP
E1C0
6180
7180
3300
3B00
1E00
1E00
0C00
3C00
3800
ENDCHAR
STARTCHAR 007A
ENCODING 122
SWIDTH 714 0
DWIDTH 10 0
BBX 9 10 1 0
BITMAP
FF80
FF80
C700
0600
0C00
1800
3000
6000
FF80
FF80
ENDCHAR
STARTCHAR 007B
ENCODING 123
SWIDTH 428 0
DWIDTH 6 0
BBX 4 14 1 -2
BITMAP
F0
F0
C0
C0
E0
60
60
60
60
E0
C0
C0
F0
F0
ENDCHAR
STARTCHAR 007C
ENCODING 124
SWIDTH 285 0
DWIDTH 4 0
BBX 2 12 1 -1
BITMAP
C0
C0
C0
C0
C0
C0
C0
C0
C0
C0
C0
C0
ENDCHAR
STARTCHAR 007D
ENCODING 125
SWIDTH 428 0
DWIDTH 6 0
BBX 4 14 1 -2
BITMAP
E0
F0
30
70
60
60
E0
E0
60
60
70
30
F0
E0
ENDCHAR
STARTCHAR 007E
ENCODING 126
SWIDTH 571 0
DWIDTH 8 0
BBX 6 4 1 3
BITMAP
60
F4
BC
08
ENDCHAR
STARTCHAR 00A2
ENCODING 162
SWIDTH 500 0
DWIDTH 7 0
BBX 6 10 1 0
BITMAP
30
F0
F0
F8
FC
C0
C0
FC
30
30
ENDCHAR
STARTCHAR 00A9
ENCODING 169
SWIDTH 857 0
DWIDTH 12 0
BBX 11 10 1 0
BITMAP
7FC0
FFE0
C060
CE60
D260
DE60
DE60
C060
FFE0
7FC0
ENDCHAR
STARTCHAR 00AE
ENCODING 174
SWIDTH 857 0
DWIDTH 12 0
BBX 11 10 1 0
BITMAP
7FC0
FFE0
C060
DF60
DF60
D860
D760
C060
FFE0
7FC0
ENDCHAR
STARTCHAR 00BB
ENCODING 187
SWIDTH 1000 0
DWIDTH 14 0
BBX 0 0 0 0
BITMAP
ENDCHAR
STARTCHAR 2010
ENCODING 8208
SWIDTH 571 0
DWIDTH 8 0
BBX 6 2 1 4
BITMAP
FC
FC
ENDCHAR
STARTCHAR 2018
ENCODING 8216
SWIDTH 357 0
DWIDTH 5 0
BBX 3 4 1 6
BITMAP
C0
C0
E0
E0
ENDCHAR
STARTCHAR 2019
ENCODING 8217
SWIDTH 357 0
DWIDTH 5 0
BBX 3 4 1 6
BITMAP
E0
E0
60
60
ENDCHAR
STARTCHAR 201C
ENCODING 8220
SWIDTH 642 0
DWIDTH 9 0
BBX 7 4 1 6
BITMAP
CC
CC
EE
EE
ENDCHAR
STARTCHAR 201D
ENCODING 8221
SWIDTH 642 0
DWIDTH 9 0
BBX 8 4 1 6
BITMAP
E7
E7
63
63
ENDCHAR
STARTCHAR 2122
ENCODING 8482
SWIDTH 857 0
DWIDTH 12 0
BBX 10 4 1 6
BITMAP
FFC0
A940
2940
2940
ENDCHAR
ENDFONT
